D:\school\WTK\thesis\model\3dpredictsim\Results\debug\Pog_s1_tmt_bCst_d00_k2000_ig24_act_TTC_IAT30_v4_GRF.mot
nRows=12
nColumns=19

name D:\school\WTK\thesis\model\3dpredictsim\Results\debug\Pog_s1_tmt_bCst_d00_k2000_ig24_act_TTC_IAT30_v4_GRF.mot
datacolumns 19
datarows 12
range 0.5824896416 0.7106373628
endheader
time 	ground_force_vx	ground_force_vy	ground_force_vz	ground_force_px	ground_force_py	ground_force_pz	1_ground_force_vx	1_ground_force_vy	1_ground_force_vz	1_ground_force_px	1_ground_force_py	1_ground_force_pz	ground_torque_x	ground_torque_y	ground_torque_z	1_ground_torque_x	1_ground_torque_y	1_ground_torque_z
        0.5824896416	       73.5996441082	      380.2236716903	        7.5182476452	        0.3715862664	        0.0000000000	        0.0347183076	     -120.7584027583	      116.4070412134	      -29.5815923955	        0.8780511195	        0.0000000000	       -0.0487521721	        0.0000000000	        0.0000000000	        0.0000000000	        0.0000000000	        0.0000000000	        0.0000000000	
        0.5941394345	       58.8656367757	      311.0166560841	        9.1284636681	        0.3779765939	        0.0000000000	        0.0322395018	      -49.3781374936	      262.9569640821	      -15.9125216288	        0.8839984449	        0.0000000000	       -0.0474465746	        0.0000000000	        0.0000000000	        0.0000000000	        0.0000000000	        0.0000000000	        0.0000000000	
        0.6057892273	       43.1683816770	      247.3034903121	        8.6696323794	        0.3856886601	        0.0000000000	        0.0289575351	      -38.1024293423	      429.5551031546	        1.6560105318	        0.8857969742	        0.0000000000	       -0.0469991163	        0.0000000000	        0.0000000000	        0.0000000000	        0.0000000000	        0.0000000000	        0.0000000000	
        0.6174390201	       33.0478430237	      204.4616962489	        9.9484038136	        0.3917996578	        0.0000000000	        0.0261684144	      -51.4518921297	      557.9723251735	        8.3243860613	        0.8879954720	        0.0000000000	       -0.0472412999	        0.0000000000	        0.0000000000	        0.0000000000	        0.0000000000	        0.0000000000	        0.0000000000	
        0.6290888130	       29.9002832356	      177.9257431901	       11.4050331267	        0.3923683155	        0.0000000000	        0.0259805264	      -72.7935952416	      674.8136073645	       11.8687557761	        0.8945418864	        0.0000000000	       -0.0488424820	        0.0000000000	        0.0000000000	        0.0000000000	        0.0000000000	        0.0000000000	        0.0000000000	
        0.6407386058	       27.1197417854	      141.9379008346	       12.5503542829	        0.3926261912	        0.0000000000	        0.0260873976	      -87.0744079290	      753.1298545090	       14.7300977945	        0.9024114410	        0.0000000000	       -0.0508810642	        0.0000000000	        0.0000000000	        0.0000000000	        0.0000000000	        0.0000000000	        0.0000000000	
        0.6523883986	       19.4761299410	       99.5011637803	       14.1110770039	        0.3927180615	        0.0000000000	        0.0263669294	      -90.3526225205	      771.0951085806	       14.5513689557	        0.9086461726	        0.0000000000	       -0.0524510887	        0.0000000000	        0.0000000000	        0.0000000000	        0.0000000000	        0.0000000000	        0.0000000000	
        0.6640381915	        7.4626634450	       51.8286959708	       11.8937435666	        0.3924530520	        0.0000000000	        0.0266826482	      -88.0348259714	      762.1960186989	       13.4357209131	        0.9135290196	        0.0000000000	       -0.0536199621	        0.0000000000	        0.0000000000	        0.0000000000	        0.0000000000	        0.0000000000	        0.0000000000	
        0.6756879843	       -2.5058630223	        6.9282719576	        2.0959617267	        0.0000000000	        0.0000000000	        0.0000000000	      -82.2221640823	      754.0786078387	       13.4588762577	        0.9174014467	        0.0000000000	       -0.0544522056	        0.0000000000	        0.0000000000	        0.0000000000	        0.0000000000	        0.0000000000	        0.0000000000	
        0.6873377771	        0.6691203071	       -0.6201442531	       -0.0087378636	        0.0000000000	        0.0000000000	        0.0000000000	      -71.6751926789	      746.0443603081	       15.0720686497	        0.9209769012	        0.0000000000	       -0.0550508308	        0.0000000000	        0.0000000000	        0.0000000000	        0.0000000000	        0.0000000000	        0.0000000000	
        0.6989875700	       -2.8337515085	        2.2131474385	       -0.1360196479	        0.0000000000	        0.0000000000	        0.0000000000	      -61.2983055401	      730.4377694261	       15.7309007876	        0.9252247162	        0.0000000000	       -0.0554547931	        0.0000000000	        0.0000000000	        0.0000000000	        0.0000000000	        0.0000000000	        0.0000000000	
        0.7106373628	       -4.6411436445	        3.2057100734	       -0.2798480009	        0.0000000000	        0.0000000000	        0.0000000000	      -53.3546773432	      715.7644814026	       15.9410226688	        0.9309543727	        0.0000000000	       -0.0555610372	        0.0000000000	        0.0000000000	        0.0000000000	        0.0000000000	        0.0000000000	        0.0000000000	
